<svg viewBox="0 0 50 40" fill="none" xmlns="http://www.w3.org/2000/svg">
  <path
    d="M25.0506 12.8638H10.7619C10.2684 12.8622 9.77951 12.9585 9.32317 13.1472C8.86682 13.3358 8.45202 13.6131 8.10254 13.9631C7.75307 14.3132 7.47578 14.7291 7.28658 15.187C7.09739 15.6449 7 16.1358 7 16.6316V25.1488C7.00007 26.1359 7.38465 27.0839 8.07146 27.7898C8.75826 28.4957 9.69275 28.9035 10.675 28.926L12.1563 31.5007C12.4144 31.949 12.8363 31.9553 13.0938 31.5063L14.5738 28.9398H25.0506C26.0495 28.9373 27.0066 28.5367 27.7119 27.826C28.4172 27.1153 28.813 26.1524 28.8125 25.1488V16.6316C28.8125 16.1358 28.7151 15.6449 28.5259 15.187C28.3367 14.7291 28.0594 14.3132 27.71 13.9631C27.3605 13.6131 26.9457 13.3358 26.4893 13.1472C26.033 12.9585 25.5441 12.8622 25.0506 12.8638Z"
    fill="#41B38A" data-v-6e50ac7f=""></path>
  <path
    d="M35.2401 7.83997H20.9376C19.943 7.8426 18.9897 8.24012 18.2855 8.94588C17.5813 9.65165 17.1833 10.6084 17.1782 11.6078H25.0532C25.7097 11.6049 26.3602 11.7322 26.9676 11.9825C27.5749 12.2328 28.1271 12.601 28.5925 13.0662C29.0579 13.5313 29.4273 14.0842 29.6796 14.6931C29.9319 15.3021 30.062 15.955 30.0626 16.6146V23.916H31.1957L32.5314 26.2345C32.7895 26.6828 33.2114 26.686 33.4689 26.2345L34.8045 23.911H35.242C36.2375 23.9063 37.1909 23.5069 37.8947 22.7995C38.5986 22.092 38.9958 21.134 39.0001 20.1337V11.5858C39.0001 9.50848 37.3076 7.83997 35.2401 7.83997Z"
    fill="#108775" data-v-6e50ac7f=""></path>
  <path
    d="M14.9359 23.4001C14.6033 23.4001 14.3306 23.3482 14.1176 23.2443C13.9046 23.1352 13.7461 22.9923 13.6422 22.8157C13.5383 22.639 13.4863 22.4442 13.4863 22.2312C13.4863 21.8727 13.6266 21.5817 13.9072 21.3583C14.1877 21.1349 14.6085 21.0232 15.1696 21.0232H16.1516V20.9297C16.1516 20.6648 16.0763 20.4699 15.9256 20.3452C15.7749 20.2205 15.5879 20.1582 15.3645 20.1582C15.1619 20.1582 14.9852 20.2076 14.8345 20.3063C14.6839 20.3998 14.5904 20.5401 14.554 20.7271H13.5798C13.6058 20.4465 13.6993 20.2024 13.8604 19.9945C14.0267 19.7867 14.2397 19.6283 14.4994 19.5192C14.7592 19.4049 15.0502 19.3477 15.3723 19.3477C15.923 19.3477 16.3568 19.4854 16.6737 19.7607C16.9906 20.0361 17.1491 20.4258 17.1491 20.9297V23.3066H16.2997L16.2061 22.6832C16.0918 22.891 15.9308 23.0624 15.723 23.1975C15.5203 23.3326 15.258 23.4001 14.9359 23.4001ZM15.1619 22.6208C15.4476 22.6208 15.6684 22.5273 15.8243 22.3403C15.9853 22.1532 16.0866 21.922 16.1282 21.6467H15.2788C15.0138 21.6467 14.8242 21.696 14.7099 21.7948C14.5956 21.8883 14.5384 22.0052 14.5384 22.1455C14.5384 22.2961 14.5956 22.413 14.7099 22.4961C14.8242 22.5793 14.9748 22.6208 15.1619 22.6208Z"
    fill="white" data-v-6e50ac7f=""></path>
  <path
    d="M21.1379 20.2897C20.9115 20.8847 20.6114 21.3796 20.2323 21.7903C19.8269 21.3638 19.5163 20.8583 19.2899 20.2897H21.1379ZM22.6332 20.2897V19.6789H20.543V18.847H19.9059V19.6789H17.8419V20.2897H18.5949C18.8792 21.0584 19.2425 21.7166 19.7163 22.2589C19.1846 22.6643 18.5264 22.9644 17.7472 23.1697C17.8735 23.3224 18.0683 23.6173 18.1421 23.7805C18.9424 23.5278 19.6216 23.1855 20.1955 22.7275C20.7483 23.1961 21.4328 23.5488 22.2805 23.7647C22.3752 23.5857 22.5753 23.2908 22.728 23.1381C21.9277 22.9591 21.2643 22.6485 20.722 22.2325C21.2064 21.706 21.5907 21.0689 21.875 20.2897H22.6332Z"
    fill="white" data-v-6e50ac7f=""></path>
</svg>